<svg xmlns="http://www.w3.org/2000/svg" viewBox="0 0 65.98 49.38"><defs><style>.cls-1{fill:#fff;}</style></defs><g id="Layer_2" data-name="Layer 2"><g id="Layer_3" data-name="Layer 3"><path class="cls-1" d="M39.25.53,32.56,6.69a2,2,0,0,0,.72,3.38L41.9,13a2,2,0,0,0,2.6-2.33l-1.92-9A2,2,0,0,0,39.25.53Z"/><path class="cls-1" d="M0,2.52,15.53,42.47a2.83,2.83,0,0,0,3.66,1.6l23.16-9.29Z"/><path class="cls-1" d="M.74,1.51,47.21,32.86l17.58-6.13a1.84,1.84,0,0,0-.1-3.47Z"/><path class="cls-1" d="M30.41,42.86,37,48.56a2.82,2.82,0,0,0,2.6.7,2.33,2.33,0,0,0,1.62-1.92l.82-9.23Z"/></g></g></svg>