<svg xmlns="http://www.w3.org/2000/svg" viewBox="0 0 65.98 49.38"><defs><style>.cls-1{fill:#193c93;}.cls-2{fill:#2159e6;}.cls-3{fill:#2463e2;}.cls-4{fill:#00d2d4;}</style></defs><g id="Layer_2" data-name="Layer 2"><g id="Layer_3" data-name="Layer 3"><path class="cls-1" d="M42.37,34.77l-14.94,6,9.6,7.8a2.82,2.82,0,0,0,2.6.7,2.33,2.33,0,0,0,1.62-1.92Z"/><path class="cls-2" d="M39.25.53,32.56,6.69a2,2,0,0,0,.72,3.38L41.9,13a2,2,0,0,0,2.6-2.33l-1.92-9A2,2,0,0,0,39.25.53Z"/><path class="cls-3" d="M0,2.52,15.53,42.47a2.83,2.83,0,0,0,3.66,1.6l23.16-9.29Z"/><path class="cls-4" d="M.74,1.51,47.21,32.86l17.58-6.13a1.84,1.84,0,0,0-.1-3.47Z"/></g></g></svg>